<?xml version="1.0" encoding="UTF-8"?>
<svg id="Capa_1" data-name="Capa 1" xmlns="http://www.w3.org/2000/svg" viewBox="0 0 1024 1024">
  <defs>
    <style>
      .cls-1 {
        fill: #fff;
        stroke-width: 0px;
      }
    </style>
  </defs>
  <path class="cls-1" d="m564.4,55.2c71.84,10.05,141.12,41.06,197.63,86.39,7.43,6.16,13.94,13.04,20.85,19.89-13.15,3.08-26.31,6.16-39.35,9.64-11.82-9.41-24.36-17.92-36.97-26.19-59.15-38.36-129.89-58.66-200.36-57.64-37.92,2.38-76.78,7.78-112.78,20.21-42.34,13.94-81.04,36.56-114.82,65.51-30.72,24.22-54.01,54.47-75.64,86.76-16.87,26.25-31.48,54.04-40.94,83.83-14.75,44.66-18.32,90.83-15.1,137.55.03,3.46,1.8,8.54-1.22,11.09-7.96,7.93-17.36,14.26-25.41,22.13-8.22-31.42-6.77-61.56-5.87-93.68,3.98-42.45,13.68-84.21,30.23-123.58,18.96-44.28,47.42-84.85,80.38-119.84,42.28-44.89,92.46-81.77,151.69-100.7,60.51-19.14,124.28-30.58,187.67-21.37Z"/>
  <path class="cls-1" d="m897.61,154.91c11.73,1.31,21.4,13.1,20.94,24.74-1.42,8.71-6.91,16.58-15.16,20.01-5.81,1.6-12.6.84-18.61.64-9.18-6.56-16.03-14.37-13.62-26.54,2.15-12.54,14.08-20.53,26.45-18.85Z"/>
  <path class="cls-1" d="m496.02,172.89c42.19-5.46,84.65.46,124.75,14.2,30.43,10.77,56.77,28.63,80.67,50.06,18.32,17.63,36.36,35.31,51.37,55.96,8.45,11.67,17.02,21.87,21.6,35.72-7,6.85-14.49,12.75-22.56,18.29-27.01-48.78-66.44-92.98-114.79-121.35-36.79-22.13-82.79-28.66-125.04-28.72-34.9-.29-65.71,11.15-96.93,25.5-29.04,13.24-55.38,32.84-78.02,55.17-6.3,5.87-12.31,14.2-20.27,17.71-7.06,2.58-9.32-3.63-14-7.55,8.77-15.91,21.58-26.6,34.32-39.11,22.77-20.59,47.83-39.2,75.88-51.98,26.28-12.49,53.87-21.6,83.02-23.9Z"/>
  <path class="cls-1" d="m813.98,191.91c22.91-2.15,49.19.15,66.24,17.42,13.65,12.66,19.66,30.63,20.09,48.9-.81,16.35-8.39,32.9-16.06,47.13-19.46,35.02-45.24,63.83-73.84,91.47-15.68,16.44-32.93,30.98-50.03,45.88-54.94,46.49-113.25,89.38-174.11,127.82-50.18,30.93-101.43,58.34-156.83,78.75-56.74,21.26-115.89,40.39-175.94,49.36-34.44,2.73-67.25,3.22-100.04-9.26-20.01-7.43-38.39-21.49-44.08-42.92-3.19-21.34-.75-42.25,9.26-61.53,19.34-37.81,53.02-70.74,83.86-99.51,7.7-9.41,22.53,2.58,18.53,12.22-5.37,7.09-13.33,12.63-19.89,18.67-10.51,9.15-19.14,19.66-27.76,30.58-14.49,19.4-27.01,40.94-29.65,65.45-.99,11.24,1.66,24.86,10.22,32.9,10.98,11.41,29.39,16.2,44.54,18.73,25,2.76,50.35,2,75.03-2.9,32.32-6.3,64.49-13.56,96.14-22.59,54.27-16.29,106.95-39.93,156.86-66.61,39.67-21.72,76.49-46.58,113.13-72.97,52.09-38.45,104.59-79.53,148.73-127.07,23.17-26.77,45.91-50.9,62.87-82.38,7.03-12.75,10.48-25.41,9.41-40.07.29-17.89-13.24-30-29.27-34.99-21.23-8.04-43.5-6.48-64.93-11.76,14.69-8.51,30.63-8.13,47.51-10.71Z"/>
  <path class="cls-1" d="m506.21,254.51c42.83-1.16,86.45,14.23,120.51,39.96,34.82,28.14,60.72,66.64,73.38,109.62.76,3.83,2.5,8.68-1.54,11.3-44.49,37.92-94.02,70.3-143.97,100.5-55.4,32.12-115.16,65.48-177.16,82.53-31.56-37.26-58.98-86.94-57.64-137-1.22-45.21,11.56-93.27,39.49-129.36,18.9-22.88,43.73-41.41,69.84-55.38,23.64-12.25,50.18-21.98,77.1-22.16Z"/>
  <path class="cls-1" d="m260.81,306.4c17.92-5.34,35.05,12.52,31.71,30.26-2.73,18.7-29.12,31.04-42.77,15.3-14.17-13.59-7.35-40.25,11.06-45.56Z"/>
  <path class="cls-1" d="m885.3,363.99c5.26,16.46,9.03,33.65,9.93,50.93.12,45.62,2.44,89.2-8.01,134.1-12.63,60.4-42.95,112.29-81.22,159.91-31.56,39.35-70.79,71.96-113.97,97.86-47.71,27.96-101.72,43.09-156.75,46.61-24.6-.32-49.8,1.34-74.05-2.18-46.46-4.15-92.49-21.11-133.25-43.27-29.94-16.9-58.77-36.53-80-64,12.4-3.37,24.77-6.42,37.63-7.38,26.48,27.12,59.73,45.42,94.34,60.08,53.05,21.17,113.02,30.08,169.81,24.16,66.64-9.76,130.35-38.21,181.57-82.03,50.64-43.44,90.8-98.93,114.09-161.6,15.62-42.6,22.5-87.9,20.91-133.2,1.36-18.5-4.41-35.89-5.6-53.95,7.35-9.35,16.44-17.36,24.57-26.05Z"/>
  <path class="cls-1" d="m252.51,414.4c1.31,2.12,2.61,4.21,3.92,6.3.03,2.67.03,5.31.06,7.99-2.09,2.18-4.21,4.36-6.3,6.53-3.69.06-7.38.09-11.06.12-3.02-5.02-8.62-9.79-4.44-15.94,4.36-7.2,10.74-5.43,17.83-4.99Z"/>
  <path class="cls-1" d="m789.82,466.84c5.98,5.92,4.5,13.1,4.33,20.76-1.66,24.25-8.25,48.46-16.41,71.32-14.05,39.9-38.33,75.96-69.75,104.27-18.58,17.1-37.11,33.16-59.41,45.3-18.61,10.45-37.98,16.29-57.99,23.23-12.46,3.89-25.12,8.3-38.04,10.31-5.49,1.19-11.18-4.99-15.24-7.96.9-5.66,1.95-11.24,3.46-16.75,32.7-7.67,64.32-17.54,93.27-34.96,55.14-32.52,100.47-83.16,120.1-144.7,5.43-17.95,10.74-37.02,10.69-55.9,6.94-6.39,15.68-12.78,25-14.93Z"/>
  <path class="cls-1" d="m698.7,529.94c-18.93,46.29-55.81,86.62-102.56,105.61-27.5,12.52-55.75,20.38-86.13,14.23,30.66-16.99,62.98-34.06,92.08-54.45,32.44-21.34,63.22-45.56,96.61-65.39Z"/>
  <path class="cls-1" d="m123.78,729.63c9.41-2.73,19.89-1.22,27.38,5.43,10.6,10.05,12.75,25.12,3.14,36.7-11.62,15.48-36.24,13.36-45.3-3.57-8.8-14.34-.35-32.96,14.78-38.56Z"/>
  <path class="cls-1" d="m449.01,737.7c15.33-4.27,30.46,12.22,23.9,27.06-6.65,12.83-22.01,18.09-33.07,6.88-12.49-11.44-5.05-28.75,9.18-33.95Z"/>
  <path class="cls-1" d="m349.35,890.62c12.11,2.41,18.67,16.78,13.04,27.76-5.98,13.13-26.42,15.3-34.44,2.96-6.19-9.55-2.93-19.28,4.09-27.18,5.58-2.41,11.12-5.02,17.31-3.54Z"/>
  <path class="cls-1" d="m668.68,894.33c9.93,5.23,15.27,15.1,17.39,25.81,2.26,16.78-8.97,33.83-25.32,38.42-11.64,4.15-22.56.12-32.23-6.53-28.52,9.61-57.41,16.23-87.43,18.82-19.02,3.05-36.38-.58-55.35-1.66-21.14-2.64-42.4-7.4-62.11-15.65-5.55-2.24-9.23-5.37-12.95-10.02,29.91,4.5,59.38,9.9,89.73,10.63,39.78-.44,79.33-7.7,116.27-22.65-.23-8.74-.67-16.52,4.38-24.16,8.97-16.55,31.42-21.84,47.62-13.01Z"/>
</svg>